<svg xmlns="http://www.w3.org/2000/svg">
  <symbol id="icon-menu" viewBox="0 0 24 24" fill="none" stroke="currentColor" stroke-width="2" stroke-linecap="round">
    <path d="M3 6h18M3 12h18M3 18h18" />
  </symbol>
  <symbol id="icon-close" viewBox="0 0 24 24" fill="none" stroke="currentColor" stroke-width="2" stroke-linecap="round" stroke-linejoin="round">
    <path d="M18 6l-12 12" />
    <path d="M6 6l12 12" />
  </symbol>
  <symbol id="icon-arrow-left" viewBox="0 0 24 24" fill="currentColor">
    <path
      d="M12 2l.324 .001l.318 .004l.616 .017l.299 .013l.579 .034l.553 .046c4.785 .464 6.732 2.411 7.196 7.196l.046 .553l.034 .579c.005 .098 .01 .198 .013 .299l.017 .616l.005 .642l-.005 .642l-.017 .616l-.013 .299l-.034 .579l-.046 .553c-.464 4.785 -2.411 6.732 -7.196 7.196l-.553 .046l-.579 .034c-.098 .005 -.198 .01 -.299 .013l-.616 .017l-.642 .005l-.642 -.005l-.616 -.017l-.299 -.013l-.579 -.034l-.553 -.046c-4.785 -.464 -6.732 -2.411 -7.196 -7.196l-.046 -.553l-.034 -.579a28.058 28.058 0 0 1 -.013 -.299l-.017 -.616c-.003 -.21 -.005 -.424 -.005 -.642l.001 -.324l.004 -.318l.017 -.616l.013 -.299l.034 -.579l.046 -.553c.464 -4.785 2.411 -6.732 7.196 -7.196l.553 -.046l.579 -.034c.098 -.005 .198 -.01 .299 -.013l.616 -.017c.21 -.003 .424 -.005 .642 -.005zm.707 5.293a1 1 0 0 0 -1.414 0l-4 4a1.037 1.037 0 0 0 -.2 .284l-.022 .052a.95 .95 0 0 0 -.06 .222l-.008 .067l-.002 .063v-.035v.073a1.034 1.034 0 0 0 .07 .352l.023 .052l.03 .061l.022 .037a1.2 1.2 0 0 0 .05 .074l.024 .03l.073 .082l4 4l.094 .083a1 1 0 0 0 1.32 -.083l.083 -.094a1 1 0 0 0 -.083 -1.32l-2.292 -2.293h5.585l.117 -.007a1 1 0 0 0 -.117 -1.993h-5.585l2.292 -2.293l.083 -.094a1 1 0 0 0 -.083 -1.32z" />
  </symbol>
  <symbol id="icon-arrow-right" viewBox="0 0 24 24" fill="currentColor">
    <path
      d="M12 2c-.218 0 -.432 .002 -.642 .005l-.616 .017l-.299 .013l-.579 .034l-.553 .046c-4.785 .464 -6.732 2.411 -7.196 7.196l-.046 .553l-.034 .579c-.005 .098 -.01 .198 -.013 .299l-.017 .616l-.004 .318l-.001 .324c0 .218 .002 .432 .005 .642l.017 .616l.013 .299l.034 .579l.046 .553c.464 4.785 2.411 6.732 7.196 7.196l.553 .046l.579 .034c.098 .005 .198 .01 .299 .013l.616 .017l.642 .005l.642 -.005l.616 -.017l.299 -.013l.579 -.034l.553 -.046c4.785 -.464 6.732 -2.411 7.196 -7.196l.046 -.553l.034 -.579c.005 -.098 .01 -.198 .013 -.299l.017 -.616l.005 -.642l-.005 -.642l-.017 -.616l-.013 -.299l-.034 -.579l-.046 -.553c-.464 -4.785 -2.411 -6.732 -7.196 -7.196l-.553 -.046l-.579 -.034a28.058 28.058 0 0 0 -.299 -.013l-.616 -.017l-.318 -.004l-.324 -.001zm.613 5.21l.094 .083l4 4a.927 .927 0 0 1 .097 .112l.071 .11l.054 .114l.035 .105l.03 .148l.006 .118l-.003 .075l-.017 .126l-.03 .111l-.044 .111l-.052 .098l-.074 .104l-.073 .082l-4 4a1 1 0 0 1 -1.497 -1.32l.083 -.094l2.292 -2.293h-5.585a1 1 0 0 1 -.117 -1.993l.117 -.007h5.585l-2.292 -2.293a1 1 0 0 1 -.083 -1.32l.083 -.094a1 1 0 0 1 1.32 -.083z" />
  </symbol>
  <symbol id="icon-location" viewBox="0 0 24 24" fill="none" stroke="currentColor" stroke-width="2" stroke-linecap="round" stroke-linejoin="round">
    <path d="M12 21s-6-5.686-6-10a6 6 0 1 1 12 0c0 4.314-6 10-6 10z" />
    <circle cx="12" cy="11" r="2" />
  </symbol>
  <symbol id="icon-comfort" viewBox="0 0 24 24" fill="none" stroke="currentColor" stroke-width="2" stroke-linecap="round" stroke-linejoin="round">
    <rect x="3" y="7" width="18" height="13" rx="2" ry="2" />
    <path d="M21 10H3" />
  </symbol>
  <symbol id="icon-dining" viewBox="0 0 24 24" fill="none" stroke="currentColor" stroke-width="2" stroke-linecap="round" stroke-linejoin="round">
    <path d="M3 3h18v4H3zM6 7v13a2 2 0 0 0 2 2h8a2 2 0 0 0 2-2V7" />
  </symbol>
  <symbol id="icon-service" viewBox="0 0 24 24" fill="none" stroke="currentColor" stroke-width="2" stroke-linecap="round" stroke-linejoin="round">
    <circle cx="12" cy="7" r="4" />
    <path d="M5.5 21a6.5 6.5 0 0 1 13 0" />
  </symbol>
  <symbol id="icon-phone" viewBox="0 0 24 24" fill="currentColor">
    <path
      d="M9 3a1 1 0 0 1 .877 .519l.051 .11l2 5a1 1 0 0 1 -.313 1.16l-.1 .068l-1.674 1.004l.063 .103a10 10 0 0 0 3.132 3.132l.102 .062l1.005 -1.672a1 1 0 0 1 1.113 -.453l.115 .039l5 2a1 1 0 0 1 .622 .807l.007 .121v4c0 1.657 -1.343 3 -3.06 2.998c-8.579 -.521 -15.418 -7.36 -15.94 -15.998a3 3 0 0 1 2.824 -2.995l.176 -.005h4z" />
  </symbol>
  <symbol id="icon-email" viewBox="0 0 24 24" fill="currentColor">
    <path d="M22 7.535v9.465a3 3 0 0 1 -2.824 2.995l-.176 .005h-14a3 3 0 0 1 -2.995 -2.824l-.005 -.176v-9.465l9.445 6.297l.116 .066a1 1 0 0 0 .878 0l.116 -.066l9.445 -6.297z" />
    <path d="M19 4c1.08 0 2.027 .57 2.555 1.427l-9.555 6.37l-9.555 -6.37a2.999 2.999 0 0 1 2.354 -1.42l.201 -.007h14z" />
  </symbol>
  <symbol id="icon-facebook" viewBox="0 0 24 24" fill="currentColor">
    <path
      d="M18 2a1 1 0 0 1 .993 .883l.007 .117v4a1 1 0 0 1 -.883 .993l-.117 .007h-3v1h3a1 1 0 0 1 .991 1.131l-.02 .112l-1 4a1 1 0 0 1 -.858 .75l-.113 .007h-2v6a1 1 0 0 1 -.883 .993l-.117 .007h-4a1 1 0 0 1 -.993 -.883l-.007 -.117v-6h-2a1 1 0 0 1 -.993 -.883l-.007 -.117v-4a1 1 0 0 1 .883 -.993l.117 -.007h2v-1a6 6 0 0 1 5.775 -5.996l.225 -.004h3z" />
  </symbol>
  <symbol id="icon-x" viewBox="0 0 24 24" fill="currentColor">
    <path
      d="M8.267 3a1 1 0 0 1 .73 .317l.076 .092l4.274 5.828l5.946 -5.944a1 1 0 0 1 1.497 1.32l-.083 .094l-6.163 6.162l6.262 8.54a1 1 0 0 1 -.697 1.585l-.109 .006h-4.267a1 1 0 0 1 -.73 -.317l-.076 -.092l-4.276 -5.829l-5.944 5.945a1 1 0 0 1 -1.497 -1.32l.083 -.094l6.161 -6.163l-6.26 -8.539a1 1 0 0 1 .697 -1.585l.109 -.006h4.267z" />
  </symbol>
  <symbol id="icon-github" viewBox="0 0 24 24" fill="currentColor">
    <path
      d="M5.315 2.1c.791 -.113 1.9 .145 3.333 .966l.272 .161l.16 .1l.397 -.083a13.3 13.3 0 0 1 4.59 -.08l.456 .08l.396 .083l.161 -.1c1.385 -.84 2.487 -1.17 3.322 -1.148l.164 .008l.147 .017l.076 .014l.05 .011l.144 .047a1 1 0 0 1 .53 .514a5.2 5.2 0 0 1 .397 2.91l-.047 .267l-.046 .196l.123 .163c.574 .795 .93 1.728 1.03 2.707l.023 .295l.007 .272c0 3.855 -1.659 5.883 -4.644 6.68l-.245 .061l-.132 .029l.014 .161l.008 .157l.004 .365l-.002 .213l-.003 3.834a1 1 0 0 1 -.883 .993l-.117 .007h-6a1 1 0 0 1 -.993 -.883l-.007 -.117v-.734c-1.818 .26 -3.03 -.424 -4.11 -1.878l-.535 -.766c-.28 -.396 -.455 -.579 -.589 -.644l-.048 -.019a1 1 0 0 1 .564 -1.918c.642 .188 1.074 .568 1.57 1.239l.538 .769c.76 1.079 1.36 1.459 2.609 1.191l.001 -.678l-.018 -.168a5.03 5.03 0 0 1 -.021 -.824l.017 -.185l.019 -.12l-.108 -.024c-2.976 -.71 -4.703 -2.573 -4.875 -6.139l-.01 -.31l-.004 -.292a5.6 5.6 0 0 1 .908 -3.051l.152 -.222l.122 -.163l-.045 -.196a5.2 5.2 0 0 1 .145 -2.642l.1 -.282l.106 -.253a1 1 0 0 1 .529 -.514l.144 -.047l.154 -.03z" />
  </symbol>
  <symbol id="icon-linkedin" viewBox="0 0 24 24" fill="currentColor">
    <path
      d="M17 2a5 5 0 0 1 5 5v10a5 5 0 0 1 -5 5h-10a5 5 0 0 1 -5 -5v-10a5 5 0 0 1 5 -5zm-9 8a1 1 0 0 0 -1 1v5a1 1 0 0 0 2 0v-5a1 1 0 0 0 -1 -1m6 0a3 3 0 0 0 -1.168 .236l-.125 .057a1 1 0 0 0 -1.707 .707v5a1 1 0 0 0 2 0v-3a1 1 0 0 1 2 0v3a1 1 0 0 0 2 0v-3a3 3 0 0 0 -3 -3m-6 -3a1 1 0 0 0 -.993 .883l-.007 .127a1 1 0 0 0 1.993 .117l.007 -.127a1 1 0 0 0 -1 -1" />
  </symbol>
  <symbol id="icon-instagram" viewBox="0 0 24 24" fill="currentColor">
    <path
      d="M16 3a5 5 0 0 1 5 5v8a5 5 0 0 1 -5 5h-8a5 5 0 0 1 -5 -5v-8a5 5 0 0 1 5 -5zm-4 5a4 4 0 0 0 -3.995 3.8l-.005 .2a4 4 0 1 0 4 -4m4.5 -1.5a1 1 0 0 0 -.993 .883l-.007 .127a1 1 0 0 0 1.993 .117l.007 -.127a1 1 0 0 0 -1 -1" />
  </symbol>
</svg>
